<svg id="visual" viewBox="0 0 1440 560" width="1440" height="560" xmlns="http://www.w3.org/2000/svg" xmlns:xlink="http://www.w3.org/1999/xlink" version="1.1"><rect x="0" y="0" width="1440" height="560" fill="#ffffff"></rect><path d="M0 372L40 380.5C80 389 160 406 240 416C320 426 400 429 480 416C560 403 640 374 720 365C800 356 880 367 960 376.2C1040 385.3 1120 392.7 1200 400.5C1280 408.3 1360 416.7 1400 420.8L1440 425L1440 561L1400 561C1360 561 1280 561 1200 561C1120 561 1040 561 960 561C880 561 800 561 720 561C640 561 560 561 480 561C400 561 320 561 240 561C160 561 80 561 40 561L0 561Z" fill="#222" stroke-linecap="round" stroke-linejoin="miter"></path></svg>